{
  "accessors": [
    {
      "bufferView": 2,
      "componentType": 5126,
      "count": 308,
      "max": [
        50.27040100097656,
        10.214200019836426,
        133.32659912109375
      ],
      "min": [
        -50.2704963684082,
        -13.031900405883789,
        36.08440017700195
      ],
      "type": "VEC3"
    },
    {
      "bufferView": 2,
      "byteOffset": 3696,
      "componentType": 5126,
      "count": 308,
      "max": [
        0.9991902709007263,
        0.9989498257637024,
        0.7177246809005737
      ],
      "min": [
        -0.9996227025985718,
        -0.9981188178062439,
        -0.6643673777580261
      ],
      "type": "VEC3"
    },
    {
      "bufferView": 1,
      "componentType": 5126,
      "count": 308,
      "max": [
        0.9638699889183044,
        0.8091859817504883
      ],
      "min": [
        0.5865269899368286,
        0.002789020538330078
      ],
      "type": "VEC2"
    },
    {
      "bufferView": 0,
      "componentType": 5125,
      "count": 1476,
      "type": "SCALAR"
    },
    {
      "bufferView": 2,
      "byteOffset": 7392,
      "componentType": 5126,
      "count": 3732,
      "max": [
        62.35900115966797,
        16.798200607299805,
        158.81309509277344
      ],
      "min": [
        -62.35900115966797,
        -20.095600128173828,
        -0.05869999900460243
      ],
      "type": "VEC3"
    },
    {
      "bufferView": 2,
      "byteOffset": 52176,
      "componentType": 5126,
      "count": 3732,
      "max": [
        1.0,
        0.9999934434890747,
        0.9982060194015503
      ],
      "min": [
        -1.0,
        -0.9998630881309509,
        -0.9989792704582214
      ],
      "type": "VEC3"
    },
    {
      "bufferView": 1,
      "byteOffset": 2464,
      "componentType": 5126,
      "count": 3732,
      "max": [
        0.9986000061035156,
        0.9992259740829468
      ],
      "min": [
        0.0020200000144541264,
        0.0050699710845947266
      ],
      "type": "VEC2"
    },
    {
      "bufferView": 0,
      "byteOffset": 5904,
      "componentType": 5125,
      "count": 20982,
      "type": "SCALAR"
    },
    {
      "bufferView": 2,
      "byteOffset": 96960,
      "componentType": 5126,
      "count": 740,
      "max": [
        10.726799964904785,
        12.415300369262695,
        183.64320373535156
      ],
      "min": [
        -10.726799964904785,
        -12.676199913024902,
        153.49819946289063
      ],
      "type": "VEC3"
    },
    {
      "bufferView": 2,
      "byteOffset": 105840,
      "componentType": 5126,
      "count": 740,
      "max": [
        0.9999999403953552,
        0.9974691271781921,
        0.999699056148529
      ],
      "min": [
        -1.0,
        -0.9997003078460693,
        -0.9997087717056274
      ],
      "type": "VEC3"
    },
    {
      "bufferView": 1,
      "byteOffset": 32320,
      "componentType": 5126,
      "count": 740,
      "max": [
        0.9931769967079163,
        0.9936959743499756
      ],
      "min": [
        0.02216400019824505,
        0.01058197021484375
      ],
      "type": "VEC2"
    },
    {
      "bufferView": 0,
      "byteOffset": 89832,
      "componentType": 5125,
      "count": 4302,
      "type": "SCALAR"
    }
  ],
  "asset": {
    "extras": {
      "author": "albertomarun (https://sketchfab.com/albertomarun)",
      "license": "CC-BY-4.0 (http://creativecommons.org/licenses/by/4.0/)",
      "source": "https://sketchfab.com/3d-models/star-wars-c3po-6bb0be59be404ab0b880a46783f69ade",
      "title": "Star Wars - C3PO"
    },
    "generator": "Sketchfab-12.65.0",
    "version": "2.0"
  },
  "bufferViews": [
    {
      "buffer": 0,
      "byteLength": 107040,
      "name": "floatBufferViews",
      "target": 34963
    },
    {
      "buffer": 0,
      "byteLength": 38240,
      "byteOffset": 107040,
      "byteStride": 8,
      "name": "floatBufferViews",
      "target": 34962
    },
    {
      "buffer": 0,
      "byteLength": 114720,
      "byteOffset": 145280,
      "byteStride": 12,
      "name": "floatBufferViews",
      "target": 34962
    }
  ],
  "buffers": [
    {
      "byteLength": 260000,
      "uri": "scene.bin"
    }
  ],
  "images": [
    {
      "uri": "textures/BodyBlack_baseColor.png"
    },
    {
      "uri": "textures/Head_baseColor.png"
    }
  ],
  "materials": [
    {
      "doubleSided": true,
      "name": "BodyBlack",
      "pbrMetallicRoughness": {
        "baseColorTexture": {
          "index": 0
        },
        "metallicFactor": 0.0,
        "roughnessFactor": 0.6
      }
    },
    {
      "doubleSided": true,
      "name": "Body",
      "pbrMetallicRoughness": {
        "baseColorTexture": {
          "index": 0
        },
        "metallicFactor": 0.0,
        "roughnessFactor": 0.6
      }
    },
    {
      "doubleSided": true,
      "name": "Head",
      "pbrMetallicRoughness": {
        "baseColorTexture": {
          "index": 1
        },
        "metallicFactor": 0.0,
        "roughnessFactor": 0.6
      }
    }
  ],
  "meshes": [
    {
      "name": "Object_0",
      "primitives": [
        {
          "attributes": {
            "NORMAL": 1,
            "POSITION": 0,
            "TEXCOORD_0": 2
          },
          "indices": 3,
          "material": 0,
          "mode": 4
        }
      ]
    },
    {
      "name": "Object_1",
      "primitives": [
        {
          "attributes": {
            "NORMAL": 5,
            "POSITION": 4,
            "TEXCOORD_0": 6
          },
          "indices": 7,
          "material": 1,
          "mode": 4
        }
      ]
    },
    {
      "name": "Object_2",
      "primitives": [
        {
          "attributes": {
            "NORMAL": 9,
            "POSITION": 8,
            "TEXCOORD_0": 10
          },
          "indices": 11,
          "material": 2,
          "mode": 4
        }
      ]
    }
  ],
  "nodes": [
    {
      "children": [
        1
      ],
      "matrix": [
        1.0,
        0.0,
        0.0,
        0.0,
        0.0,
        2.220446049250313e-16,
        -1.0,
        0.0,
        0.0,
        1.0,
        2.220446049250313e-16,
        0.0,
        0.0,
        0.0,
        0.0,
        1.0
      ],
      "name": "Sketchfab_model"
    },
    {
      "children": [
        2,
        3,
        4
      ],
      "name": "Model"
    },
    {
      "mesh": 0,
      "name": "Object_2"
    },
    {
      "mesh": 1,
      "name": "Object_3"
    },
    {
      "mesh": 2,
      "name": "Object_4"
    }
  ],
  "samplers": [
    {
      "magFilter": 9729,
      "minFilter": 9987,
      "wrapS": 33071,
      "wrapT": 33071
    }
  ],
  "scene": 0,
  "scenes": [
    {
      "name": "Sketchfab_Scene",
      "nodes": [
        0
      ]
    }
  ],
  "textures": [
    {
      "sampler": 0,
      "source": 0
    },
    {
      "sampler": 0,
      "source": 1
    }
  ]
}
